# Blender v2.90.1 OBJ File: ''
# www.blender.org
mtllib Head.mtl
o TowerHead_Cube.010
v -0.320402 0.493418 -0.537248
v -0.369310 0.483690 -0.537248
v -0.410772 0.455986 -0.537248
v -0.438476 0.414524 -0.537248
v -0.448204 0.365616 -0.537248
v -0.438476 0.316708 -0.537248
v -0.410772 0.275246 -0.537248
v -0.369310 0.247542 -0.537248
v -0.320402 0.237814 -0.537248
v -0.271495 0.247542 -0.537248
v -0.230033 0.275246 -0.537248
v -0.202329 0.316708 -0.537248
v -0.192601 0.365616 -0.537248
v -0.202329 0.414524 -0.537248
v -0.230033 0.455986 -0.537248
v -0.271495 0.483690 -0.537248
v -0.320403 0.430611 -1.082518
v -0.320403 0.466711 -1.067262
v -0.345275 0.425663 -1.082518
v -0.359090 0.459016 -1.067262
v -0.366361 0.411574 -1.082518
v -0.391888 0.437101 -1.067262
v -0.380450 0.390488 -1.082518
v -0.413803 0.404303 -1.067262
v -0.385397 0.365616 -1.082518
v -0.421498 0.365616 -1.067262
v -0.380450 0.340744 -1.082518
v -0.413803 0.326928 -1.067262
v -0.366361 0.319658 -1.082518
v -0.391888 0.294131 -1.067262
v -0.345275 0.305569 -1.082518
v -0.359090 0.272216 -1.067262
v -0.320403 0.300621 -1.082518
v -0.320403 0.264521 -1.067262
v -0.295530 0.305569 -1.082518
v -0.281715 0.272216 -1.067262
v -0.274444 0.319658 -1.082518
v -0.248917 0.294131 -1.067262
v -0.260355 0.340744 -1.082518
v -0.227003 0.326928 -1.067262
v -0.255408 0.365616 -1.082518
v -0.219307 0.365616 -1.067262
v -0.260355 0.390488 -1.082518
v -0.227003 0.404304 -1.067262
v -0.274444 0.411574 -1.082518
v -0.248917 0.437101 -1.067262
v -0.295530 0.425663 -1.082518
v -0.281715 0.459016 -1.067262
v -0.320403 0.450369 -1.082518
v -0.352836 0.443918 -1.082518
v -0.380332 0.425546 -1.082518
v -0.398704 0.398050 -1.082518
v -0.405156 0.365616 -1.082518
v -0.398704 0.333182 -1.082518
v -0.380332 0.305686 -1.082518
v -0.352836 0.287314 -1.082518
v -0.320403 0.280863 -1.082518
v -0.287969 0.287314 -1.082518
v -0.260473 0.305686 -1.082518
v -0.242101 0.333182 -1.082518
v -0.235649 0.365616 -1.082518
v -0.242101 0.398050 -1.082518
v -0.260473 0.425546 -1.082518
v -0.287969 0.443918 -1.082518
v -0.320402 0.456132 -0.750461
v -0.355041 0.449241 -0.750461
v -0.384407 0.429620 -0.750461
v -0.404028 0.400255 -0.750461
v -0.410918 0.365616 -0.750461
v -0.404028 0.330977 -0.750461
v -0.384407 0.301612 -0.750461
v -0.355041 0.281990 -0.750461
v -0.320402 0.275100 -0.750461
v -0.285764 0.281990 -0.750461
v -0.256398 0.301611 -0.750461
v -0.236777 0.330977 -0.750461
v -0.229887 0.365616 -0.750461
v -0.236777 0.400255 -0.750461
v -0.256398 0.429620 -0.750461
v -0.285764 0.449242 -0.750461
v -0.597966 0.756520 -0.597966
v -0.597966 0.800061 0.597966
v -0.637589 -0.022245 -0.669851
v -0.585066 -0.022245 -0.722374
v -0.585065 -0.022245 0.677488
v -0.637588 -0.022245 0.624965
v -0.585066 0.716898 -0.637588
v -0.637589 0.716898 -0.585065
v -0.607265 0.747222 -0.607264
v -0.637588 0.716898 0.585066
v -0.585065 0.716898 0.637589
v -0.607264 0.790762 0.607265
v 0.000000 -0.022245 0.677488
v -0.000000 -0.022245 -0.792696
v 0.320402 0.493418 -0.537249
v 0.369310 0.483690 -0.537249
v 0.410772 0.455986 -0.537249
v 0.438476 0.414524 -0.537249
v 0.448204 0.365616 -0.537249
v 0.438476 0.316708 -0.537249
v 0.410772 0.275246 -0.537249
v 0.369310 0.247542 -0.537249
v 0.320402 0.237814 -0.537249
v 0.271494 0.247542 -0.537249
v 0.230032 0.275246 -0.537249
v 0.202329 0.316708 -0.537249
v 0.192600 0.365616 -0.537249
v 0.202329 0.414524 -0.537248
v 0.230033 0.455986 -0.537249
v 0.271494 0.483690 -0.537249
v 0.320402 0.430611 -1.082518
v 0.320402 0.466711 -1.067263
v 0.345274 0.425663 -1.082518
v 0.359089 0.459016 -1.067263
v 0.366360 0.411574 -1.082518
v 0.391887 0.437101 -1.067263
v 0.380449 0.390488 -1.082518
v 0.413802 0.404303 -1.067263
v 0.385397 0.365616 -1.082518
v 0.421497 0.365616 -1.067263
v 0.380449 0.340744 -1.082518
v 0.413802 0.326928 -1.067263
v 0.366360 0.319658 -1.082518
v 0.391887 0.294131 -1.067263
v 0.345274 0.305569 -1.082518
v 0.359089 0.272216 -1.067263
v 0.320402 0.300621 -1.082518
v 0.320402 0.264521 -1.067263
v 0.295529 0.305569 -1.082518
v 0.281714 0.272216 -1.067263
v 0.274444 0.319658 -1.082518
v 0.248917 0.294131 -1.067263
v 0.260355 0.340744 -1.082518
v 0.227002 0.326928 -1.067263
v 0.255407 0.365616 -1.082518
v 0.219307 0.365616 -1.067263
v 0.260355 0.390488 -1.082518
v 0.227002 0.404304 -1.067263
v 0.274444 0.411574 -1.082518
v 0.248917 0.437101 -1.067263
v 0.295530 0.425663 -1.082518
v 0.281714 0.459016 -1.067263
v 0.320402 0.450369 -1.082518
v 0.352835 0.443918 -1.082518
v 0.380331 0.425546 -1.082518
v 0.398704 0.398050 -1.082518
v 0.405155 0.365616 -1.082518
v 0.398704 0.333182 -1.082518
v 0.380331 0.305686 -1.082518
v 0.352835 0.287314 -1.082518
v 0.320402 0.280863 -1.082518
v 0.287968 0.287314 -1.082518
v 0.260472 0.305686 -1.082518
v 0.242100 0.333182 -1.082518
v 0.235649 0.365616 -1.082518
v 0.242100 0.398050 -1.082518
v 0.260472 0.425546 -1.082518
v 0.287968 0.443918 -1.082518
v 0.320402 0.456132 -0.750461
v 0.355041 0.449241 -0.750461
v 0.384406 0.429620 -0.750461
v 0.404028 0.400255 -0.750461
v 0.410918 0.365616 -0.750461
v 0.404028 0.330977 -0.750461
v 0.384406 0.301612 -0.750461
v 0.355041 0.281990 -0.750461
v 0.320402 0.275100 -0.750461
v 0.285763 0.281990 -0.750461
v 0.256398 0.301611 -0.750461
v 0.236776 0.330977 -0.750461
v 0.229886 0.365616 -0.750461
v 0.236776 0.400255 -0.750461
v 0.256398 0.429620 -0.750461
v 0.285763 0.449242 -0.750461
v 0.597966 0.756520 -0.597966
v 0.597966 0.800061 0.597966
v 0.000000 0.830788 0.608001
v 0.000000 0.716898 0.637589
v -0.000000 0.716898 -0.707911
v -0.000000 0.788137 -0.606289
v 0.637588 -0.022245 -0.669852
v 0.585065 -0.022245 -0.722375
v 0.585066 -0.022245 0.677488
v 0.637589 -0.022245 0.624965
v 0.585065 0.716898 -0.637589
v 0.637588 0.716898 -0.585066
v 0.607264 0.747222 -0.607265
v 0.637589 0.716898 0.585065
v 0.585066 0.716898 0.637588
v 0.607265 0.790762 0.607264
vt 0.375000 0.375000
vt 0.612280 0.375000
vt 0.612280 0.489703
vt 0.375000 0.489703
vt 0.375000 0.760297
vt 0.612280 0.760297
vt 0.612280 0.875000
vt 0.375000 0.875000
vt 0.250000 0.500000
vt 0.364703 0.500000
vt 0.375000 0.510297
vt 0.375000 0.739703
vt 0.364703 0.750000
vt 0.250000 0.750000
vt 0.625000 0.757768
vt 0.625000 0.875000
vt 0.622015 0.755945
vt 0.062500 0.500000
vt 0.062500 0.986011
vt 0.000000 0.986011
vt 0.000000 0.500000
vt 0.875000 0.500000
vt 0.875000 0.986011
vt 0.812500 0.986011
vt 0.812500 0.500000
vt 0.750000 0.986011
vt 0.750000 0.500000
vt 0.687500 0.986011
vt 0.687500 0.500000
vt 0.625000 0.986011
vt 0.625000 0.500000
vt 0.562500 0.986011
vt 0.562500 0.500000
vt 0.500000 0.986011
vt 0.500000 0.500000
vt 0.437500 0.986011
vt 0.437500 0.500000
vt 0.375000 0.986011
vt 0.375000 0.500000
vt 0.312500 0.986011
vt 0.312500 0.500000
vt 0.250000 0.986011
vt 0.250000 0.500000
vt 0.187500 0.986011
vt 0.187500 0.500000
vt 0.125000 0.986011
vt 0.125000 0.500000
vt 1.000000 0.500000
vt 1.000000 0.986011
vt 0.937500 0.986011
vt 0.937500 0.500000
vt 0.750000 0.490000
vt 0.841844 0.471731
vt 0.919706 0.419706
vt 0.971731 0.341844
vt 0.990000 0.250000
vt 0.971731 0.158156
vt 0.919706 0.080294
vt 0.841844 0.028269
vt 0.750000 0.010000
vt 0.658156 0.028269
vt 0.580294 0.080294
vt 0.528269 0.158156
vt 0.510000 0.250000
vt 0.528269 0.341844
vt 0.580294 0.419706
vt 0.658156 0.471731
vt 0.995149 1.000000
vt 0.942351 1.000000
vt 0.932649 1.000000
vt 0.879851 1.000000
vt 0.870149 1.000000
vt 0.817351 1.000000
vt 0.807649 1.000000
vt 0.754851 1.000000
vt 0.745149 1.000000
vt 0.692351 1.000000
vt 0.682649 1.000000
vt 0.629851 1.000000
vt 0.620149 1.000000
vt 0.567351 1.000000
vt 0.557649 1.000000
vt 0.504851 1.000000
vt 0.495149 1.000000
vt 0.442351 1.000000
vt 0.432649 1.000000
vt 0.379851 1.000000
vt 0.370149 1.000000
vt 0.317351 1.000000
vt 0.307649 1.000000
vt 0.254851 1.000000
vt 0.245149 1.000000
vt 0.192351 1.000000
vt 0.182649 1.000000
vt 0.129851 1.000000
vt 0.120149 1.000000
vt 0.067351 1.000000
vt 0.057649 1.000000
vt 0.004851 1.000000
vt 0.140059 0.140059
vt 0.190500 0.106355
vt 0.190500 0.106355
vt 0.140059 0.140059
vt 0.250000 0.405480
vt 0.309499 0.393645
vt 0.327587 0.437312
vt 0.250000 0.452745
vt 0.359941 0.359941
vt 0.393363 0.393363
vt 0.393644 0.309499
vt 0.437312 0.327587
vt 0.405480 0.250000
vt 0.452745 0.250000
vt 0.393644 0.190501
vt 0.437312 0.172413
vt 0.359941 0.140059
vt 0.393363 0.106637
vt 0.309499 0.106356
vt 0.327587 0.062688
vt 0.250000 0.094520
vt 0.250000 0.047255
vt 0.172413 0.062688
vt 0.106637 0.106637
vt 0.106355 0.190501
vt 0.062688 0.172413
vt 0.094520 0.250000
vt 0.047255 0.250000
vt 0.106355 0.309500
vt 0.062688 0.327587
vt 0.140059 0.359941
vt 0.106638 0.393363
vt 0.190501 0.393645
vt 0.172413 0.437312
vt 0.309499 0.393645
vt 0.250000 0.405480
vt 0.190501 0.393645
vt 0.140059 0.359941
vt 0.106355 0.309500
vt 0.094520 0.250000
vt 0.106355 0.190501
vt 0.250000 0.094520
vt 0.309499 0.106356
vt 0.359941 0.140059
vt 0.393644 0.190501
vt 0.405480 0.250000
vt 0.393644 0.309499
vt 0.359941 0.359941
vt 0.625000 0.375000
vt 0.625000 0.492232
vt 0.622015 0.494055
vt 0.632768 0.507768
vt 0.632768 0.742232
vt 0.627960 0.744055
vt 0.612280 0.739703
vt 0.612280 0.510297
vt 0.627960 0.505945
vt 0.750000 0.507768
vt 0.750000 0.742232
vt 0.617901 0.753432
vt 0.620711 0.500000
vt 0.375000 0.489703
vt 0.612280 0.489703
vt 0.375000 0.760297
vt 0.612280 0.760297
vt 0.364703 0.750000
vt 0.375000 0.739703
vt 0.375000 0.510297
vt 0.364703 0.500000
vt 0.625000 0.757768
vt 0.622015 0.755945
vt 0.062500 0.500000
vt 0.000000 0.500000
vt 0.000000 0.986011
vt 0.062500 0.986011
vt 0.875000 0.500000
vt 0.812500 0.500000
vt 0.812500 0.986011
vt 0.875000 0.986011
vt 0.750000 0.500000
vt 0.750000 0.986011
vt 0.687500 0.500000
vt 0.687500 0.986011
vt 0.625000 0.500000
vt 0.625000 0.986011
vt 0.562500 0.500000
vt 0.562500 0.986011
vt 0.500000 0.500000
vt 0.500000 0.986011
vt 0.437500 0.500000
vt 0.437500 0.986011
vt 0.375000 0.500000
vt 0.375000 0.986011
vt 0.312500 0.500000
vt 0.312500 0.986011
vt 0.250000 0.500000
vt 0.250000 0.986011
vt 0.187500 0.500000
vt 0.187500 0.986011
vt 0.125000 0.500000
vt 0.125000 0.986011
vt 1.000000 0.500000
vt 0.937500 0.500000
vt 0.937500 0.986011
vt 1.000000 0.986011
vt 0.750000 0.490000
vt 0.658156 0.471731
vt 0.580294 0.419706
vt 0.528269 0.341844
vt 0.510000 0.250000
vt 0.528269 0.158156
vt 0.580294 0.080294
vt 0.658156 0.028269
vt 0.750000 0.010000
vt 0.841844 0.028269
vt 0.919706 0.080294
vt 0.971731 0.158156
vt 0.990000 0.250000
vt 0.971731 0.341844
vt 0.919706 0.419706
vt 0.841844 0.471731
vt 0.942351 1.000000
vt 0.995149 1.000000
vt 0.879851 1.000000
vt 0.932649 1.000000
vt 0.817351 1.000000
vt 0.870149 1.000000
vt 0.754851 1.000000
vt 0.807649 1.000000
vt 0.692351 1.000000
vt 0.745149 1.000000
vt 0.629851 1.000000
vt 0.682649 1.000000
vt 0.567351 1.000000
vt 0.620149 1.000000
vt 0.504851 1.000000
vt 0.557649 1.000000
vt 0.442351 1.000000
vt 0.495149 1.000000
vt 0.379851 1.000000
vt 0.432649 1.000000
vt 0.317351 1.000000
vt 0.370149 1.000000
vt 0.254851 1.000000
vt 0.307649 1.000000
vt 0.192351 1.000000
vt 0.245149 1.000000
vt 0.129851 1.000000
vt 0.182649 1.000000
vt 0.067351 1.000000
vt 0.120149 1.000000
vt 0.004851 1.000000
vt 0.057649 1.000000
vt 0.140059 0.140059
vt 0.140059 0.140059
vt 0.190500 0.106355
vt 0.190500 0.106355
vt 0.250000 0.405480
vt 0.250000 0.452745
vt 0.327587 0.437312
vt 0.309499 0.393645
vt 0.393363 0.393363
vt 0.359941 0.359941
vt 0.437312 0.327587
vt 0.393644 0.309499
vt 0.452745 0.250000
vt 0.405480 0.250000
vt 0.437312 0.172413
vt 0.393644 0.190501
vt 0.393363 0.106637
vt 0.359941 0.140059
vt 0.327587 0.062688
vt 0.309499 0.106356
vt 0.250000 0.047255
vt 0.250000 0.094520
vt 0.172413 0.062688
vt 0.106637 0.106637
vt 0.062688 0.172413
vt 0.106355 0.190501
vt 0.047255 0.250000
vt 0.094520 0.250000
vt 0.062688 0.327587
vt 0.106355 0.309500
vt 0.106638 0.393363
vt 0.140059 0.359941
vt 0.172413 0.437312
vt 0.190501 0.393645
vt 0.309499 0.393645
vt 0.359941 0.359941
vt 0.393644 0.309499
vt 0.405480 0.250000
vt 0.393644 0.190501
vt 0.359941 0.140059
vt 0.309499 0.106356
vt 0.250000 0.094520
vt 0.106355 0.190501
vt 0.094520 0.250000
vt 0.106355 0.309500
vt 0.140059 0.359941
vt 0.190501 0.393645
vt 0.250000 0.405480
vt 0.622015 0.494055
vt 0.625000 0.492232
vt 0.632768 0.507768
vt 0.627960 0.505945
vt 0.612280 0.510297
vt 0.612280 0.739703
vt 0.627960 0.744055
vt 0.632768 0.742232
vt 0.617901 0.753432
vt 0.620711 0.500000
vn 0.0000 0.0539 0.9985
vn -0.1186 0.1132 -0.9865
vn 0.0000 -1.0000 -0.0000
vn -0.0617 0.7819 -0.6203
vn 0.1949 0.9796 -0.0494
vn -0.8305 0.5549 -0.0494
vn -0.9796 0.1949 -0.0494
vn -0.9796 -0.1949 -0.0494
vn -0.8305 -0.5549 -0.0494
vn -0.5549 -0.8305 -0.0494
vn -0.1949 -0.9796 -0.0494
vn 0.1949 -0.9796 -0.0494
vn 0.5549 -0.8305 -0.0494
vn 0.8305 -0.5549 -0.0494
vn 0.9796 -0.1949 -0.0494
vn 0.9796 0.1949 -0.0494
vn 0.8305 0.5549 -0.0494
vn 0.5549 0.8305 -0.0494
vn -0.1949 0.9796 -0.0494
vn -0.5549 0.8305 -0.0494
vn 0.0000 -0.0000 1.0000
vn -0.1345 0.6762 -0.7243
vn -0.3830 0.5732 -0.7243
vn -0.5732 0.3830 -0.7243
vn -0.6762 0.1345 -0.7243
vn -0.6762 -0.1345 -0.7243
vn -0.5732 -0.3830 -0.7243
vn -0.3830 -0.5732 -0.7243
vn -0.1345 -0.6762 -0.7243
vn 0.1345 -0.6762 -0.7243
vn 0.3830 -0.5732 -0.7243
vn 0.5732 -0.3830 -0.7243
vn 0.6762 -0.1345 -0.7243
vn 0.6762 0.1345 -0.7243
vn 0.5732 0.3830 -0.7243
vn 0.3830 0.5732 -0.7243
vn 0.1345 0.6762 -0.7243
vn -0.5540 0.8291 0.0752
vn -0.0000 0.0000 -1.0000
vn 0.8291 -0.5540 0.0752
vn -0.8291 0.5540 0.0752
vn 0.9780 -0.1945 0.0752
vn -0.9780 0.1945 0.0752
vn 0.9780 0.1945 0.0752
vn -0.9780 -0.1945 0.0752
vn 0.8291 0.5540 0.0752
vn -0.8291 -0.5540 0.0752
vn 0.5540 0.8291 0.0752
vn -0.5540 -0.8291 0.0752
vn 0.1945 0.9780 0.0752
vn 0.1945 -0.9780 0.0752
vn -0.1945 -0.9780 0.0752
vn -0.1945 0.9780 0.0752
vn 0.5540 -0.8291 0.0752
vn -0.0132 0.3316 0.9433
vn -0.8399 0.5426 -0.0122
vn -0.0520 0.9980 -0.0357
vn -0.6947 0.1862 -0.6947
vn -0.7050 0.0776 0.7050
vn -0.7066 0.0381 0.7066
vn -0.7048 0.0808 -0.7048
vn -1.0000 0.0000 0.0000
vn 0.1186 0.1132 -0.9865
vn 0.0617 0.7819 -0.6203
vn -0.5732 -0.3830 -0.7244
vn 0.0132 0.3316 0.9433
vn 0.8399 0.5426 -0.0122
vn 0.0520 0.9980 -0.0357
vn 0.6947 0.1862 -0.6947
vn 0.7050 0.0775 0.7050
vn 0.7066 0.0381 0.7066
vn 0.7048 0.0808 -0.7048
vn 1.0000 0.0000 -0.0000
usemtl None
s off
f 93/1/1 178/2/1 91/3/1 85/4/1
f 84/5/2 87/6/2 179/7/2 94/8/2
f 93/9/3 85/10/3 86/11/3 83/12/3 84/13/3 94/14/3
f 81/15/4 180/16/4 179/7/4 87/6/4 89/17/4
f 16/18/5 48/19/5 18/20/5 1/21/5
f 3/22/6 22/23/6 24/24/6 4/25/6
f 4/25/7 24/24/7 26/26/7 5/27/7
f 5/27/8 26/26/8 28/28/8 6/29/8
f 6/29/9 28/28/9 30/30/9 7/31/9
f 7/31/10 30/30/10 32/32/10 8/33/10
f 8/33/11 32/32/11 34/34/11 9/35/11
f 9/35/12 34/34/12 36/36/12 10/37/12
f 10/37/13 36/36/13 38/38/13 11/39/13
f 11/39/14 38/38/14 40/40/14 12/41/14
f 12/41/15 40/40/15 42/42/15 13/43/15
f 13/43/16 42/42/16 44/44/16 14/45/16
f 14/45/17 44/44/17 46/46/17 15/47/17
f 15/47/18 46/46/18 48/19/18 16/18/18
f 1/48/19 18/49/19 20/50/19 2/51/19
f 2/51/20 20/50/20 22/23/20 3/22/20
f 1/52/21 2/53/21 3/54/21 4/55/21 5/56/21 6/57/21 7/58/21 8/59/21 9/60/21 10/61/21 11/62/21 12/63/21 13/64/21 14/65/21 15/66/21 16/67/21
f 20/50/22 18/49/22 49/68/22 50/69/22
f 22/23/23 20/50/23 50/70/23 51/71/23
f 24/24/24 22/23/24 51/72/24 52/73/24
f 26/26/25 24/24/25 52/74/25 53/75/25
f 28/28/26 26/26/26 53/76/26 54/77/26
f 30/30/27 28/28/27 54/78/27 55/79/27
f 32/32/28 30/30/28 55/80/28 56/81/28
f 34/34/29 32/32/29 56/82/29 57/83/29
f 36/36/30 34/34/30 57/84/30 58/85/30
f 38/38/31 36/36/31 58/86/31 59/87/31
f 40/40/32 38/38/32 59/88/32 60/89/32
f 42/42/33 40/40/33 60/90/33 61/91/33
f 44/44/34 42/42/34 61/92/34 62/93/34
f 46/46/35 44/44/35 62/94/35 63/95/35
f 48/19/36 46/46/36 63/96/36 64/97/36
f 18/20/37 48/19/37 64/98/37 49/99/37
f 37/100/38 35/101/38 74/102/38 75/103/38
f 17/104/39 19/105/39 50/106/39 49/107/39
f 19/105/39 21/108/39 51/109/39 50/106/39
f 21/108/39 23/110/39 52/111/39 51/109/39
f 23/110/39 25/112/39 53/113/39 52/111/39
f 25/112/39 27/114/39 54/115/39 53/113/39
f 27/114/39 29/116/39 55/117/39 54/115/39
f 29/116/39 31/118/39 56/119/39 55/117/39
f 31/118/39 33/120/39 57/121/39 56/119/39
f 33/120/39 35/101/39 58/122/39 57/121/39
f 35/101/39 37/100/39 59/123/39 58/122/39
f 37/100/39 39/124/39 60/125/39 59/123/39
f 39/124/39 41/126/39 61/127/39 60/125/39
f 41/126/39 43/128/39 62/129/39 61/127/39
f 43/128/39 45/130/39 63/131/39 62/129/39
f 45/130/39 47/132/39 64/133/39 63/131/39
f 47/132/39 17/104/39 49/107/39 64/133/39
f 66/134/39 65/135/39 80/136/39 79/137/39 78/138/39 77/139/39 76/140/39 75/103/39 74/102/39 73/141/39 72/142/39 71/143/39 70/144/39 69/145/39 68/146/39 67/147/39
f 23/110/40 21/108/40 67/147/40 68/146/40
f 39/124/41 37/100/41 75/103/41 76/140/41
f 25/112/42 23/110/42 68/146/42 69/145/42
f 41/126/43 39/124/43 76/140/43 77/139/43
f 27/114/44 25/112/44 69/145/44 70/144/44
f 43/128/45 41/126/45 77/139/45 78/138/45
f 29/116/46 27/114/46 70/144/46 71/143/46
f 45/130/47 43/128/47 78/138/47 79/137/47
f 31/118/48 29/116/48 71/143/48 72/142/48
f 47/132/49 45/130/49 79/137/49 80/136/49
f 33/120/50 31/118/50 72/142/50 73/141/50
f 19/105/51 17/104/51 65/135/51 66/134/51
f 17/104/52 47/132/52 80/136/52 65/135/52
f 35/101/53 33/120/53 73/141/53 74/102/53
f 21/108/54 19/105/54 66/134/54 67/147/54
f 177/148/55 82/149/55 92/150/55 91/3/55 178/2/55
f 82/151/56 81/152/56 89/153/56 88/154/56 90/155/56 92/156/56
f 82/151/57 177/157/57 180/158/57 81/152/57
f 87/6/58 88/159/58 89/17/58
f 90/160/59 91/3/59 92/150/59
f 85/4/60 91/3/60 90/155/60 86/11/60
f 87/6/61 84/5/61 83/12/61 88/154/61
f 86/11/62 90/155/62 88/154/62 83/12/62
f 93/1/1 183/161/1 189/162/1 178/2/1
f 182/163/63 94/8/63 179/7/63 185/164/63
f 93/9/3 94/14/3 182/165/3 181/166/3 184/167/3 183/168/3
f 175/169/64 187/170/64 185/164/64 179/7/64 180/16/64
f 110/171/19 95/172/19 112/173/19 142/174/19
f 97/175/17 98/176/17 118/177/17 116/178/17
f 98/176/16 99/179/16 120/180/16 118/177/16
f 99/179/15 100/181/15 122/182/15 120/180/15
f 100/181/14 101/183/14 124/184/14 122/182/14
f 101/183/13 102/185/13 126/186/13 124/184/13
f 102/185/12 103/187/12 128/188/12 126/186/12
f 103/187/11 104/189/11 130/190/11 128/188/11
f 104/189/10 105/191/10 132/192/10 130/190/10
f 105/191/9 106/193/9 134/194/9 132/192/9
f 106/193/8 107/195/8 136/196/8 134/194/8
f 107/195/7 108/197/7 138/198/7 136/196/7
f 108/197/6 109/199/6 140/200/6 138/198/6
f 109/199/20 110/171/20 142/174/20 140/200/20
f 95/201/5 96/202/5 114/203/5 112/204/5
f 96/202/18 97/175/18 116/178/18 114/203/18
f 95/205/21 110/206/21 109/207/21 108/208/21 107/209/21 106/210/21 105/211/21 104/212/21 103/213/21 102/214/21 101/215/21 100/216/21 99/217/21 98/218/21 97/219/21 96/220/21
f 114/203/37 144/221/37 143/222/37 112/204/37
f 116/178/36 145/223/36 144/224/36 114/203/36
f 118/177/35 146/225/35 145/226/35 116/178/35
f 120/180/34 147/227/34 146/228/34 118/177/34
f 122/182/33 148/229/33 147/230/33 120/180/33
f 124/184/32 149/231/32 148/232/32 122/182/32
f 126/186/31 150/233/31 149/234/31 124/184/31
f 128/188/30 151/235/30 150/236/30 126/186/30
f 130/190/29 152/237/29 151/238/29 128/188/29
f 132/192/28 153/239/28 152/240/28 130/190/28
f 134/194/65 154/241/65 153/242/65 132/192/65
f 136/196/26 155/243/26 154/244/26 134/194/26
f 138/198/25 156/245/25 155/246/25 136/196/25
f 140/200/24 157/247/24 156/248/24 138/198/24
f 142/174/23 158/249/23 157/250/23 140/200/23
f 112/173/22 143/251/22 158/252/22 142/174/22
f 131/253/48 169/254/48 168/255/48 129/256/48
f 111/257/39 143/258/39 144/259/39 113/260/39
f 113/260/39 144/259/39 145/261/39 115/262/39
f 115/262/39 145/261/39 146/263/39 117/264/39
f 117/264/39 146/263/39 147/265/39 119/266/39
f 119/266/39 147/265/39 148/267/39 121/268/39
f 121/268/39 148/267/39 149/269/39 123/270/39
f 123/270/39 149/269/39 150/271/39 125/272/39
f 125/272/39 150/271/39 151/273/39 127/274/39
f 127/274/39 151/273/39 152/275/39 129/256/39
f 129/256/39 152/275/39 153/276/39 131/253/39
f 131/253/39 153/276/39 154/277/39 133/278/39
f 133/278/39 154/277/39 155/279/39 135/280/39
f 135/280/39 155/279/39 156/281/39 137/282/39
f 137/282/39 156/281/39 157/283/39 139/284/39
f 139/284/39 157/283/39 158/285/39 141/286/39
f 141/286/39 158/285/39 143/258/39 111/257/39
f 160/287/39 161/288/39 162/289/39 163/290/39 164/291/39 165/292/39 166/293/39 167/294/39 168/255/39 169/254/39 170/295/39 171/296/39 172/297/39 173/298/39 174/299/39 159/300/39
f 117/264/47 162/289/47 161/288/47 115/262/47
f 133/278/46 170/295/46 169/254/46 131/253/46
f 119/266/45 163/290/45 162/289/45 117/264/45
f 135/280/44 171/296/44 170/295/44 133/278/44
f 121/268/43 164/291/43 163/290/43 119/266/43
f 137/282/42 172/297/42 171/296/42 135/280/42
f 123/270/41 165/292/41 164/291/41 121/268/41
f 139/284/40 173/298/40 172/297/40 137/282/40
f 125/272/38 166/293/38 165/292/38 123/270/38
f 141/286/54 174/299/54 173/298/54 139/284/54
f 127/274/53 167/294/53 166/293/53 125/272/53
f 113/260/52 160/287/52 159/300/52 111/257/52
f 111/257/51 159/300/51 174/299/51 141/286/51
f 129/256/50 168/255/50 167/294/50 127/274/50
f 115/262/49 161/288/49 160/287/49 113/260/49
f 177/148/66 178/2/66 189/162/66 190/301/66 176/302/66
f 176/303/67 190/304/67 188/305/67 186/306/67 187/307/67 175/308/67
f 176/303/68 175/308/68 180/158/68 177/157/68
f 185/164/69 187/170/69 186/309/69
f 188/310/70 190/301/70 189/162/70
f 183/161/71 184/167/71 188/305/71 189/162/71
f 185/164/72 186/306/72 181/166/72 182/163/72
f 184/167/73 181/166/73 186/306/73 188/305/73
