# Blender v2.90.1 OBJ File: ''
# www.blender.org
mtllib Spawner.mtl
o Cube.005_Cube.014
v -0.272052 0.008280 0.272052
v -0.272052 0.373022 0.272052
v -0.272052 0.008280 -0.272052
v -0.272052 0.373022 -0.272052
v 0.272052 0.008280 0.272052
v 0.272052 0.373022 0.272052
v 0.272052 0.008280 -0.272052
v 0.272052 0.373022 -0.272052
v 0.120216 0.008280 -0.272052
v -0.120216 0.008280 -0.272052
v -0.120216 0.373022 -0.272052
v 0.120216 0.373022 -0.272052
v -0.120216 0.008280 0.272052
v 0.120216 0.008280 0.272052
v 0.120216 0.373022 0.272052
v -0.120216 0.373022 0.272052
v -0.272052 0.290039 0.272052
v -0.272052 0.290039 -0.272052
v 0.272052 0.290039 -0.272052
v 0.272052 0.290039 0.272052
v 0.120216 0.290039 0.272052
v -0.120216 0.290039 0.272052
v -0.120216 0.290039 -0.272052
v 0.120216 0.290039 -0.272052
v -0.120216 0.008280 -0.092564
v 0.120216 0.290039 -0.092564
v -0.120216 0.290039 -0.092564
v 0.120216 0.008280 -0.092564
v -0.272052 0.326792 0.272052
v -0.272052 0.326792 -0.272052
v 0.272052 0.326792 -0.272052
v 0.272052 0.326792 0.272052
v 0.120216 0.326792 0.272052
v -0.120216 0.326792 0.272052
v -0.120216 0.326792 -0.272052
v 0.120216 0.326792 -0.272052
v -0.272052 0.326792 -0.370971
v -0.272052 0.290039 -0.370971
v 0.272052 0.326792 -0.370971
v 0.272052 0.290039 -0.370971
v -0.120216 0.326792 -0.370971
v -0.120216 0.290039 -0.370971
v 0.120216 0.326792 -0.370971
v 0.120216 0.290039 -0.370971
v 0.182852 0.005925 -0.076911
v 0.170567 0.306695 -0.112947
v 0.182852 0.005925 -0.253830
v 0.170567 0.306695 -0.217794
v 0.359771 0.005925 -0.076911
v 0.275414 0.306695 -0.112947
v 0.359771 0.005925 -0.253830
v 0.275414 0.306695 -0.217794
v 0.182852 0.005925 0.248127
v 0.170567 0.306695 0.212091
v 0.182852 0.005925 0.071208
v 0.170567 0.306695 0.107244
v 0.359771 0.005925 0.248127
v 0.275414 0.306695 0.212091
v 0.359771 0.005925 0.071208
v 0.275414 0.306695 0.107244
v -0.202048 0.005925 0.071208
v -0.189762 0.306695 0.107244
v -0.202048 0.005925 0.248127
v -0.189762 0.306695 0.212091
v -0.378966 0.005925 0.071208
v -0.294609 0.306695 0.107244
v -0.378966 0.005925 0.248127
v -0.294609 0.306695 0.212091
v -0.202048 0.005925 -0.253830
v -0.189762 0.306695 -0.217794
v -0.202048 0.005925 -0.076911
v -0.189762 0.306695 -0.112947
v -0.378966 0.005925 -0.253830
v -0.294609 0.306695 -0.217794
v -0.378966 0.005925 -0.076911
v -0.294609 0.306695 -0.112947
vt 0.654434 0.807566
vt 0.658460 0.807566
vt 0.658460 0.839330
vt 0.654434 0.839330
vt 0.654434 0.860506
vt 0.658460 0.860506
vt 0.658460 0.871094
vt 0.654434 0.871094
vt 0.658460 0.902858
vt 0.654434 0.902858
vt 0.654434 0.924034
vt 0.658460 0.924034
vt 0.658460 0.934622
vt 0.654434 0.934622
vt 0.616108 0.871094
vt 0.626696 0.871094
vt 0.626696 0.902858
vt 0.616108 0.902858
vt 0.679636 0.871094
vt 0.690224 0.871094
vt 0.690224 0.902858
vt 0.679636 0.902858
vt 0.669048 0.871094
vt 0.669048 0.902858
vt 0.594932 0.871094
vt 0.605520 0.871094
vt 0.605520 0.902858
vt 0.594932 0.902858
vt 0.658460 0.913446
vt 0.654434 0.913446
vt 0.658460 0.849918
vt 0.654434 0.849918
vt 0.852405 0.868318
vt 0.827868 0.868318
vt 0.827868 0.868318
vt 0.852405 0.868318
vt 0.626696 0.839330
vt 0.651233 0.839330
vt 0.651233 0.849918
vt 0.626696 0.849918
vt 0.626696 0.913446
vt 0.651233 0.913446
vt 0.651233 0.924034
vt 0.626696 0.924034
vt 0.651233 0.902858
vt 0.651233 0.934622
vt 0.626696 0.934622
vt 0.651233 0.871094
vt 0.626696 0.860506
vt 0.651233 0.860506
vt 0.626696 0.807566
vt 0.651233 0.807566
vt 0.875874 0.382812
vt 0.865286 0.382812
vt 0.865286 0.382812
vt 0.875874 0.382812
vt 0.852405 0.857730
vt 0.852405 0.857730
vt 0.827868 0.857730
vt 0.827868 0.857730
vt 0.651233 0.849918
vt 0.651233 0.860506
vt 0.654434 0.860506
vt 0.654434 0.849918
vt 0.654434 0.839330
vt 0.651233 0.839330
vt 0.654434 0.871094
vt 0.651233 0.871094
vt 0.626696 0.807566
vt 0.658460 0.807566
vt 0.658460 0.839330
vt 0.626696 0.839330
vt 0.658460 0.871094
vt 0.626696 0.871094
vt 0.658460 0.902858
vt 0.626696 0.902858
vt 0.658460 0.934622
vt 0.626696 0.934622
vt 0.594932 0.871094
vt 0.594932 0.902858
vt 0.690224 0.871094
vt 0.690224 0.902858
vt 0.626696 0.807566
vt 0.658460 0.807566
vt 0.658460 0.839330
vt 0.626696 0.839330
vt 0.658460 0.871094
vt 0.626696 0.871094
vt 0.658460 0.902858
vt 0.626696 0.902858
vt 0.658460 0.934622
vt 0.626696 0.934622
vt 0.594932 0.871094
vt 0.594932 0.902858
vt 0.690224 0.871094
vt 0.690224 0.902858
vt 0.626696 0.807566
vt 0.658460 0.807566
vt 0.658460 0.839330
vt 0.626696 0.839330
vt 0.658460 0.871094
vt 0.626696 0.871094
vt 0.658460 0.902858
vt 0.626696 0.902858
vt 0.658460 0.934622
vt 0.626696 0.934622
vt 0.594932 0.871094
vt 0.594932 0.902858
vt 0.690224 0.871094
vt 0.690224 0.902858
vt 0.626696 0.807566
vt 0.658460 0.807566
vt 0.658460 0.839330
vt 0.626696 0.839330
vt 0.658460 0.871094
vt 0.626696 0.871094
vt 0.658460 0.902858
vt 0.626696 0.902858
vt 0.658460 0.934622
vt 0.626696 0.934622
vt 0.594932 0.871094
vt 0.594932 0.902858
vt 0.690224 0.871094
vt 0.690224 0.902858
vn -1.0000 0.0000 0.0000
vn 0.0000 0.0000 -1.0000
vn 1.0000 0.0000 0.0000
vn 0.0000 0.0000 1.0000
vn 0.0000 -1.0000 0.0000
vn 0.0000 1.0000 0.0000
vn -0.9992 -0.0408 0.0000
vn 0.0000 0.1190 -0.9929
vn 0.9628 0.2700 0.0000
vn 0.0000 0.1190 0.9929
vn 0.9992 -0.0408 0.0000
vn -0.9628 0.2700 0.0000
usemtl LowPoly
s off
f 29/1/1 2/2/1 4/3/1 30/4/1
f 36/5/2 12/6/2 8/7/2 31/8/2
f 31/8/3 8/7/3 6/9/3 32/10/3
f 34/11/4 16/12/4 2/13/4 29/14/4
f 9/15/5 7/16/5 5/17/5 14/18/5
f 11/19/6 4/20/6 2/21/6 16/22/6
f 8/7/6 12/23/6 15/24/6 6/9/6
f 12/23/6 11/19/6 16/22/6 15/24/6
f 3/25/5 10/26/5 13/27/5 1/28/5
f 10/26/5 9/15/5 14/18/5 13/27/5
f 32/10/4 6/9/4 15/29/4 33/30/4
f 33/30/4 15/29/4 16/12/4 34/11/4
f 30/4/2 4/3/2 11/31/2 35/32/2
f 35/32/2 11/31/2 12/6/2 36/5/2
f 24/33/1 9/34/1 28/35/1 26/36/1
f 3/37/2 18/38/2 23/39/2 10/40/2
f 14/41/4 21/42/4 22/43/4 13/44/4
f 5/17/4 20/45/4 21/42/4 14/41/4
f 13/44/4 22/43/4 17/46/4 1/47/4
f 7/16/3 19/48/3 20/45/3 5/17/3
f 9/49/2 24/50/2 19/48/2 7/16/2
f 1/51/1 17/52/1 18/38/1 3/37/1
f 9/53/6 10/54/6 25/55/6 28/56/6
f 23/57/5 24/33/5 26/36/5 27/58/5
f 28/35/2 25/59/2 27/58/2 26/36/2
f 10/60/3 23/57/3 27/58/3 25/59/3
f 24/50/5 23/39/5 42/61/5 44/62/5
f 35/32/6 36/5/6 43/63/6 41/64/6
f 21/42/4 33/30/4 34/11/4 22/43/4
f 20/45/4 32/10/4 33/30/4 21/42/4
f 22/43/4 34/11/4 29/14/4 17/46/4
f 19/48/3 31/8/3 32/10/3 20/45/3
f 18/38/1 30/4/1 37/65/1 38/66/1
f 17/52/1 29/1/1 30/4/1 18/38/1
f 42/61/2 41/64/2 43/63/2 44/62/2
f 38/66/2 37/65/2 41/64/2 42/61/2
f 44/62/2 43/63/2 39/67/2 40/68/2
f 31/8/3 19/48/3 40/68/3 39/67/3
f 30/4/6 35/32/6 41/64/6 37/65/6
f 23/39/5 18/38/5 38/66/5 42/61/5
f 36/5/6 31/8/6 39/67/6 43/63/6
f 19/48/5 24/50/5 44/62/5 40/68/5
f 45/69/7 46/70/7 48/71/7 47/72/7
f 47/72/8 48/71/8 52/73/8 51/74/8
f 51/74/9 52/73/9 50/75/9 49/76/9
f 49/76/10 50/75/10 46/77/10 45/78/10
f 47/79/5 51/74/5 49/76/5 45/80/5
f 52/73/6 48/81/6 46/82/6 50/75/6
f 53/83/7 54/84/7 56/85/7 55/86/7
f 55/86/8 56/85/8 60/87/8 59/88/8
f 59/88/9 60/87/9 58/89/9 57/90/9
f 57/90/10 58/89/10 54/91/10 53/92/10
f 55/93/5 59/88/5 57/90/5 53/94/5
f 60/87/6 56/95/6 54/96/6 58/89/6
f 61/97/11 62/98/11 64/99/11 63/100/11
f 63/100/10 64/99/10 68/101/10 67/102/10
f 67/102/12 68/101/12 66/103/12 65/104/12
f 65/104/8 66/103/8 62/105/8 61/106/8
f 63/107/5 67/102/5 65/104/5 61/108/5
f 68/101/6 64/109/6 62/110/6 66/103/6
f 69/111/11 70/112/11 72/113/11 71/114/11
f 71/114/10 72/113/10 76/115/10 75/116/10
f 75/116/12 76/115/12 74/117/12 73/118/12
f 73/118/8 74/117/8 70/119/8 69/120/8
f 71/121/5 75/116/5 73/118/5 69/122/5
f 76/115/6 72/123/6 70/124/6 74/117/6
